<svg width="317" height="307" viewBox="0 0 317 307" fill="none" xmlns="http://www.w3.org/2000/svg">
<g filter="url(#filter0_d)">
<path d="M202.5 299C263.527 299 313 249.527 313 188.5C313 127.473 263.527 78 202.5 78C141.473 78 92 127.473 92 188.5C92 249.527 141.473 299 202.5 299Z" fill="url(#paint0_linear)"/>
<path d="M250.858 232.529L213.493 142.192C211.385 137.522 208.253 135.244 204.123 135.244H200.82C196.69 135.244 193.557 137.522 191.45 142.192L175.188 181.551H162.885C159.211 181.579 156.221 184.541 156.192 188.244V188.329C156.221 192.003 159.211 194.993 162.885 195.022H169.492L153.971 232.529C153.686 233.355 153.515 234.209 153.515 235.092C153.515 237.2 154.17 238.852 155.338 240.133C156.506 241.415 158.186 242.041 160.293 242.041C161.689 242.013 163.027 241.586 164.138 240.76C165.334 239.934 166.16 238.738 166.815 237.371L183.903 194.993H195.75C199.424 194.965 202.414 192.003 202.443 188.301V188.13C202.414 184.456 199.424 181.466 195.75 181.437H189.428L202.471 148.942L238.014 237.342C238.669 238.709 239.495 239.905 240.691 240.731C241.801 241.557 243.168 241.984 244.535 242.013C246.643 242.013 248.295 241.386 249.491 240.105C250.687 238.823 251.314 237.171 251.314 235.064C251.342 234.209 251.2 233.327 250.858 232.529Z" fill="white"/>
</g>
<path d="M41.9542 226.646C36.2457 219.723 32.2868 211.52 30.4122 202.73C28.5376 193.94 28.8025 184.823 31.1846 176.149C31.2798 175.802 31.306 175.44 31.2618 175.083C31.2175 174.727 31.1036 174.382 30.9265 174.07C30.7494 173.758 30.5127 173.484 30.2298 173.263C29.9469 173.043 29.6234 172.881 29.2778 172.786C28.9321 172.691 28.5711 172.665 28.2153 172.71C27.8595 172.756 27.5159 172.87 27.2041 173.049C26.8924 173.227 26.6185 173.465 26.3983 173.749C26.178 174.033 26.0156 174.358 25.9203 174.705C23.6689 182.841 23.1159 191.352 24.296 199.705C25.476 208.059 28.3637 216.075 32.7783 223.251C37.1928 230.427 43.0391 236.609 49.951 241.41C56.8629 246.21 64.6915 249.526 72.9466 251.15L71.7437 263.878C71.6928 264.417 71.8024 264.959 72.0587 265.435C72.315 265.911 72.7066 266.3 73.1839 266.553C73.6611 266.806 74.2026 266.91 74.7398 266.854C75.2771 266.798 75.7859 266.583 76.2021 266.237L92.6919 252.531C93.2498 252.067 93.6015 251.4 93.6698 250.677C93.7381 249.954 93.5173 249.234 93.056 248.676L79.4203 232.166C79.0762 231.749 78.6164 231.444 78.0991 231.29C77.5818 231.136 77.0302 231.139 76.514 231.299C75.9979 231.459 75.5403 231.769 75.1993 232.19C74.8583 232.61 74.6491 233.122 74.5982 233.662L73.464 245.668C61.1062 243.1 49.9948 236.392 41.9542 226.646V226.646Z" fill="#7A7FB0"/>
<path d="M176.392 26.8822L196.51 40.0401C197.017 40.3721 197.612 40.5454 198.217 40.5379C198.823 40.5304 199.413 40.3426 199.912 39.9982C200.412 39.6537 200.798 39.1681 201.023 38.6027C201.248 38.0374 201.301 37.4177 201.176 36.822L198.383 23.5585C206.885 22.7329 215.465 23.6675 223.594 26.3046C231.723 28.9417 239.228 33.2254 245.646 38.8912C252.064 44.5571 257.259 51.485 260.911 59.2475C264.563 67.0099 266.593 75.4423 266.877 84.0241C266.904 84.8221 267.237 85.5784 267.808 86.1337C268.379 86.6889 269.142 86.9995 269.936 87C269.971 87 270.007 87 270.042 87C270.854 86.9722 271.621 86.6214 272.175 86.0248C272.73 85.4283 273.026 84.6348 272.998 83.8189C272.684 74.3379 270.429 65.0239 266.373 56.4584C262.318 47.893 256.549 40.2601 249.427 34.0365C242.305 27.8129 233.984 23.1323 224.982 20.287C215.98 17.4417 206.491 16.4928 197.107 17.4995L194.147 3.44122C194.022 2.84547 193.723 2.30048 193.29 1.87519C192.856 1.44991 192.307 1.16343 191.712 1.05199C191.116 0.940552 190.501 1.00916 189.944 1.24914C189.388 1.48912 188.914 1.88969 188.584 2.40018L175.495 22.6231C175.053 23.3075 174.898 24.1406 175.066 24.9394C175.235 25.7381 175.711 26.4369 176.392 26.8822Z" fill="#7A7FB0"/>
<g filter="url(#filter1_d)">
<path d="M92 175.5C140.325 175.5 179.5 136.325 179.5 88C179.5 39.6751 140.325 0.5 92 0.5C43.6751 0.5 4.5 39.6751 4.5 88C4.5 136.325 43.6751 175.5 92 175.5Z" fill="url(#paint1_linear)"/>
<path d="M130.293 122.865L100.705 51.3312C99.0362 47.6327 96.5555 45.8286 93.2855 45.8286H90.6695C87.3996 45.8286 84.9189 47.6327 83.2501 51.3312L70.3732 82.4974H60.6309C57.7217 82.52 55.3538 84.8653 55.3313 87.797V87.8647C55.3538 90.7738 57.7217 93.1418 60.6309 93.1643H65.8628L53.5723 122.865C53.3467 123.519 53.2114 124.195 53.2114 124.894C53.2114 126.563 53.7301 127.871 54.6547 128.886C55.5793 129.901 56.9099 130.397 58.5787 130.397C59.6837 130.374 60.7436 130.036 61.6232 129.382C62.5703 128.728 63.2243 127.781 63.743 126.698L77.2739 93.1418H86.6554C89.5645 93.1192 91.9324 90.7738 91.955 87.8421V87.7068C91.9324 84.7977 89.5645 82.4298 86.6554 82.4072H81.6489L91.9775 56.6759L120.122 126.676C120.641 127.758 121.295 128.706 122.242 129.36C123.121 130.014 124.204 130.352 125.286 130.374C126.955 130.374 128.263 129.878 129.21 128.863C130.157 127.849 130.653 126.541 130.653 124.872C130.676 124.195 130.563 123.496 130.293 122.865Z" fill="white"/>
</g>
<defs>
<filter id="filter0_d" x="88" y="78" width="229" height="229" filterUnits="userSpaceOnUse" color-interpolation-filters="sRGB">
<feFlood flood-opacity="0" result="BackgroundImageFix"/>
<feColorMatrix in="SourceAlpha" type="matrix" values="0 0 0 0 0 0 0 0 0 0 0 0 0 0 0 0 0 0 127 0" result="hardAlpha"/>
<feOffset dy="4"/>
<feGaussianBlur stdDeviation="2"/>
<feColorMatrix type="matrix" values="0 0 0 0 0 0 0 0 0 0 0 0 0 0 0 0 0 0 0.25 0"/>
<feBlend mode="normal" in2="BackgroundImageFix" result="effect1_dropShadow"/>
<feBlend mode="normal" in="SourceGraphic" in2="effect1_dropShadow" result="shape"/>
</filter>
<filter id="filter1_d" x="0.5" y="0.5" width="183" height="183" filterUnits="userSpaceOnUse" color-interpolation-filters="sRGB">
<feFlood flood-opacity="0" result="BackgroundImageFix"/>
<feColorMatrix in="SourceAlpha" type="matrix" values="0 0 0 0 0 0 0 0 0 0 0 0 0 0 0 0 0 0 127 0" result="hardAlpha"/>
<feOffset dy="4"/>
<feGaussianBlur stdDeviation="2"/>
<feColorMatrix type="matrix" values="0 0 0 0 0 0 0 0 0 0 0 0 0 0 0 0 0 0 0.25 0"/>
<feBlend mode="normal" in2="BackgroundImageFix" result="effect1_dropShadow"/>
<feBlend mode="normal" in="SourceGraphic" in2="effect1_dropShadow" result="shape"/>
</filter>
<linearGradient id="paint0_linear" x1="284.887" y1="119.177" x2="120.463" y2="257.523" gradientUnits="userSpaceOnUse">
<stop stop-color="#B6509E"/>
<stop offset="1" stop-color="#2EBAC6"/>
</linearGradient>
<linearGradient id="paint1_linear" x1="157.239" y1="33.1065" x2="27.0387" y2="142.656" gradientUnits="userSpaceOnUse">
<stop stop-color="#B6509E"/>
<stop offset="1" stop-color="#2EBAC6"/>
</linearGradient>
</defs>
</svg>
