<svg xmlns="http://www.w3.org/2000/svg" width="1000.199" height="1000.199" viewBox="0 0 1000.199 1000.199">
  <g id="Group_181" transform="translate(-426.555 -1499.901)">
    <g id="Group_36" transform="translate(-297 -0.08)">
      <g id="Group_35" >
        <g id="Group_34" >
          <g id="Group_33" >
            <g id="Group_32" >
              <path id="Path_64" d="M723.555,1499.981v1000.2h1000.2v-1000.2Z"/>
              <path id="Path_65" d="M1628.5,1595.238V1547.61H818.812v47.628H771.183v809.685h47.629v47.629H1628.5v-47.629h47.629V1595.238Z" fill="#38404f"/>
            </g>
          </g>
        </g>
        <path id="Path_66" d="M1628.5,1642.867v-47.629h-47.628V1547.61H866.44v47.628H818.812v47.629H771.183v714.428h47.629v47.628H866.44v47.629h714.429v-47.629H1628.5v-47.628h47.629V1642.867ZM914.069,2357.295H866.44v-47.629h47.629Zm0-666.8H866.44v-47.628h47.629Zm666.8,666.8H1533.24v-47.629h47.629Zm0-666.8H1533.24v-47.628h47.629Z" fill="#6c727d"/>
      </g>
    </g>
    <g id="Group_45" transform="translate(-297 -0.081)">
      <path id="Path_67" d="M1580.869,1928.638v-47.629H1533.24v-95.257h-47.628v-47.628h-47.629v-47.629h-95.257v-47.628H1295.1v-47.629H1152.212v47.629h-47.629v47.628h-95.257v47.629H961.7v47.628H914.069v95.257H866.44v47.629H818.812v142.886H866.44v47.628h47.629v95.257H961.7v47.629h47.629v47.628h95.257v47.629h47.629v47.628H1295.1v-47.628h47.629v-47.629h95.257v-47.628h47.629v-47.629h47.628v-95.257h47.629v-47.628H1628.5V1928.638Z"/>
      <g id="Group_44" >
        <g id="Group_42" >
          <g id="Group_41" >
            <g id="Group_39" >
              <g id="Group_37" >
                <rect id="Rectangle_19" width="47.629" height="47.629" transform="translate(1342.726 1833.381)" fill="#d200d2"/>
                <rect id="Rectangle_20" width="47.629" height="47.629" transform="translate(1056.955 1833.381)" fill="#d200d2"/>
                <rect id="Rectangle_21" width="47.629" height="47.629" transform="translate(1342.726 2119.152)" fill="#d200d2"/>
                <rect id="Rectangle_22" width="47.629" height="47.629" transform="translate(1056.955 2119.152)" fill="#d200d2"/>
              </g>
              <g id="Group_38" >
                <path id="Path_68" d="M1104.583,1785.752v47.629h238.143v-47.629Z" fill="#f0f"/>
                <path id="Path_69" d="M1104.583,2166.781v47.628h238.143v-47.628Z" fill="#f0f"/>
                <path id="Path_70" d="M1009.326,2119.152h47.629V1881.009h-47.629Z" fill="#f0f"/>
                <path id="Path_71" d="M1390.354,1881.009v238.143h47.629V1881.009Z" fill="#f0f"/>
              </g>
            </g>
            <g id="Group_40" >
              <path id="Path_72" d="M1104.583,1690.495v47.629h238.143v-47.629Z" fill="#262632"/>
              <path id="Path_73" d="M1104.583,2262.038v47.628h238.143v-47.628Z" fill="#262632"/>
              <path id="Path_74" d="M1485.611,1881.009v-95.257h-47.628v-47.628h-95.257v47.628h47.628v47.629h47.629v47.629h47.628v238.142h47.629V1881.009Z" fill="#262632"/>
              <path id="Path_75" d="M1437.983,2166.781h-47.629v47.628h-47.628v47.629h95.257v-47.629h47.628v-95.257h-47.628Z" fill="#262632"/>
              <path id="Path_76" d="M1104.583,2214.409h-47.628v-47.628h-47.629v-47.629H961.7V1881.009h47.628v-47.628h47.629v-47.629h47.628v-47.628h-95.257v47.628H961.7v95.257H914.069v238.143H961.7v95.257h47.628v47.629h95.257Z" fill="#262632"/>
            </g>
          </g>
          <path id="Path_77" d="M1275.094,1931.5h0V1897.2H1172.216V1931.5h-34.293v171.462h34.293v-34.292h34.292v34.292H1240.8v-34.292h34.293v34.292h34.292V1931.5Z" fill="#f0f"/>
        </g>
        <g id="Group_43" >
          <rect id="Rectangle_23" width="47.629" height="47.629" transform="translate(1056.955 1738.124)" fill="#38404f"/>
          <path id="Path_78" d="M1009.326,1833.381H961.7v47.629h47.629v-47.629h47.629v-47.629h-47.629Z" fill="#38404f"/>
          <path id="Path_79" d="M1152.212,1690.495v47.629H1295.1v-47.629Z" fill="#38404f"/>
          <path id="Path_80" d="M1152.212,2262.038v47.628H1295.1v-47.628Z" fill="#38404f"/>
          <path id="Path_81" d="M1390.354,1833.381h47.629v-47.629h-47.629v-47.629h-47.629v47.629h47.629Z" fill="#38404f"/>
          <rect id="Rectangle_24" width="47.629" height="47.629" transform="translate(1437.983 1833.381)" fill="#38404f"/>
          <path id="Path_82" d="M1485.611,1928.638v142.886h47.629V1928.638Z" fill="#38404f"/>
          <path id="Path_83" d="M1437.983,2166.781h-47.629v47.628h47.629v-47.628h47.629v-47.629h-47.629Z" fill="#38404f"/>
          <rect id="Rectangle_25" width="47.629" height="47.629" transform="translate(1342.726 2214.409)" fill="#38404f"/>
          <path id="Path_84" d="M1009.326,2166.781v-47.629H961.7v47.629h47.629v47.628h47.629v-47.628Z" fill="#38404f"/>
          <rect id="Rectangle_26" width="47.629" height="47.629" transform="translate(1056.955 2214.409)" fill="#38404f"/>
          <path id="Path_85" d="M961.7,1928.638H914.069v142.886H961.7Z" fill="#38404f"/>
        </g>
      </g>
    </g>
  </g>
</svg>
